name rise44.9368peak50.754fall52.0217.mot
datacolumns 19
datarows 15
range 6.83331200000000 6.85664700000000
endheader
time	ground_force1_vx	ground_force1_vy	ground_force1_vz	ground_force1_px	ground_force1_py	ground_force1_pz	ground_force2_vx	ground_force2_vy	ground_force2_vz	ground_force2_px	ground_force2_py	ground_force2_pz	ground_torque1_x	ground_torque1_y	ground_torque1_z	ground_torque2_x	ground_torque2_y	ground_torque2_z	
6.83331200000000	67.02279700000000	739.09000900000001	61.41361400000000	0.41413100000000	0.00000000000000	0.10241500000000	0.00000000000000	0.00000000000000	0.00000000000000	0.00000000000000	0.00000000000000	0.00000000000000	0.00000000000000	35.68090000000000	0.00000000000000	0.00000000000000	0.00000000000000	0.00000000000000	
6.83497700000000	66.21890000000000	741.20384700000000	61.54687200000000	0.41267800000000	0.00000000000000	0.10249100000000	0.00000000000000	0.00000000000000	0.00000000000000	0.00000000000000	0.00000000000000	0.00000000000000	0.00000000000000	35.75734200000000	0.00000000000000	0.00000000000000	0.00000000000000	0.00000000000000	
6.83664700000000	65.41522700000000	743.25980200000004	61.68327700000000	0.41122000000000	0.00000000000000	0.10256900000000	0.00000000000000	0.00000000000000	0.00000000000000	0.00000000000000	0.00000000000000	0.00000000000000	0.00000000000000	35.83641600000000	0.00000000000000	0.00000000000000	0.00000000000000	0.00000000000000	
6.83830900000000	64.61263200000000	745.25686299999995	61.82246500000000	0.40975600000000	0.00000000000000	0.10264900000000	0.00000000000000	0.00000000000000	0.00000000000000	0.00000000000000	0.00000000000000	0.00000000000000	0.00000000000000	35.91778300000000	0.00000000000000	0.00000000000000	0.00000000000000	0.00000000000000	
6.83997400000000	63.81190300000000	747.19394499999999	61.96400000000000	0.40828900000000	0.00000000000000	0.10273100000000	0.00000000000000	0.00000000000000	0.00000000000000	0.00000000000000	0.00000000000000	0.00000000000000	0.00000000000000	36.00105300000000	0.00000000000000	0.00000000000000	0.00000000000000	0.00000000000000	
6.84164600000000	63.01376700000000	749.06990599999995	62.10738200000000	0.40681900000000	0.00000000000000	0.10281500000000	0.00000000000000	0.00000000000000	0.00000000000000	0.00000000000000	0.00000000000000	0.00000000000000	0.00000000000000	36.08578900000000	0.00000000000000	0.00000000000000	0.00000000000000	0.00000000000000	
6.84331200000000	62.21889000000000	750.88355300000001	62.25204800000000	0.40534700000000	0.00000000000000	0.10290100000000	0.00000000000000	0.00000000000000	0.00000000000000	0.00000000000000	0.00000000000000	0.00000000000000	0.00000000000000	36.17151200000000	0.00000000000000	0.00000000000000	0.00000000000000	0.00000000000000	
6.84497900000000	61.42787600000000	752.63366199999996	62.39738500000000	0.40387300000000	0.00000000000000	0.10298800000000	0.00000000000000	0.00000000000000	0.00000000000000	0.00000000000000	0.00000000000000	0.00000000000000	0.00000000000000	36.25770400000000	0.00000000000000	0.00000000000000	0.00000000000000	0.00000000000000	
6.84664100000000	60.64127200000000	754.31898300000000	62.54273400000000	0.40239800000000	0.00000000000000	0.10307700000000	0.00000000000000	0.00000000000000	0.00000000000000	0.00000000000000	0.00000000000000	0.00000000000000	0.00000000000000	36.34381800000000	0.00000000000000	0.00000000000000	0.00000000000000	0.00000000000000	
6.84830700000000	59.85956900000000	755.93825600000002	62.68739300000000	0.40092300000000	0.00000000000000	0.10316700000000	0.00000000000000	0.00000000000000	0.00000000000000	0.00000000000000	0.00000000000000	0.00000000000000	0.00000000000000	36.42927900000000	0.00000000000000	0.00000000000000	0.00000000000000	0.00000000000000	
6.84997800000000	59.08320300000000	757.49022100000002	62.83063100000000	0.39944900000000	0.00000000000000	0.10325800000000	0.00000000000000	0.00000000000000	0.00000000000000	0.00000000000000	0.00000000000000	0.00000000000000	0.00000000000000	36.51349300000000	0.00000000000000	0.00000000000000	0.00000000000000	0.00000000000000	
6.85164700000000	58.31256000000000	758.97363099999995	62.97168700000000	0.39797600000000	0.00000000000000	0.10335000000000	0.00000000000000	0.00000000000000	0.00000000000000	0.00000000000000	0.00000000000000	0.00000000000000	0.00000000000000	36.59584700000000	0.00000000000000	0.00000000000000	0.00000000000000	0.00000000000000	
6.85331000000000	57.54797500000000	760.38726099999997	63.10978300000000	0.39650400000000	0.00000000000000	0.10344300000000	0.00000000000000	0.00000000000000	0.00000000000000	0.00000000000000	0.00000000000000	0.00000000000000	0.00000000000000	36.67572200000000	0.00000000000000	0.00000000000000	0.00000000000000	0.00000000000000	
6.85498700000000	56.78973600000000	761.72992099999999	63.24412600000000	0.39503400000000	0.00000000000000	0.10353600000000	0.00000000000000	0.00000000000000	0.00000000000000	0.00000000000000	0.00000000000000	0.00000000000000	0.00000000000000	36.75249100000000	0.00000000000000	0.00000000000000	0.00000000000000	0.00000000000000	
6.85664700000000	56.03808700000000	763.00046599999996	63.37391900000000	0.39356600000000	0.00000000000000	0.10363000000000	0.00000000000000	0.00000000000000	0.00000000000000	0.00000000000000	0.00000000000000	0.00000000000000	0.00000000000000	36.82552700000000	0.00000000000000	0.00000000000000	0.00000000000000	0.00000000000000	
